<?xml version="1.0" encoding="utf-8"?>
<!-- Generator: Adobe Illustrator 19.0.0, SVG Export Plug-In . SVG Version: 6.00 Build 0)  -->
<svg version="1.1" id="Calque_1" xmlns="http://www.w3.org/2000/svg" xmlns:xlink="http://www.w3.org/1999/xlink" x="0px" y="0px"
	 viewBox="-388 142.4 283.5 283.5" style="enable-background:new -388 142.4 283.5 283.5;" xml:space="preserve">
<style type="text/css">
	.st0{fill:none;stroke:#000000;stroke-width:10;stroke-miterlimit:10;}
</style>
<g id="Calque_1_1_">
	<path class="st0" d="M-213.8,261.1h-25.8c-2.2,0-3.9,1.8-3.9,3.9v3.4h-92.2v103.3h125.8v-95v-8.3V265
		C-209.9,262.8-211.7,261.1-213.8,261.1z"/>
	<path class="st0" d="M-207.6,342.2h23.7v-95v-8.3v-3.4c0-2.1-1.8-3.9-4-3.9h-25.8c-2.2,0-3.9,1.8-3.9,3.9v3.4h-92.1v27.6"/>
	<path class="st0" d="M-181.3,313.6h27.3v-95v-8.3v-3.4c0-2.2-1.8-3.9-3.9-3.9h-25.8c-2.2,0-3.9,1.8-3.9,3.9v3.4h-92.1v26.4"/>
</g>
<g id="Calque_2">
</g>
<g id="Calque_3">
</g>
<g id="Calque_4">
</g>
</svg>
